<?xml version="1.0" encoding="UTF-8" standalone="no"?>
<!DOCTYPE svg PUBLIC "-//W3C//DTD SVG 1.1//EN" "http://www.w3.org/Graphics/SVG/1.1/DTD/svg11.dtd">
<svg width="100%" height="100%" viewBox="0 0 1200 852" version="1.1" xmlns="http://www.w3.org/2000/svg" xmlns:xlink="http://www.w3.org/1999/xlink" xml:space="preserve" xmlns:serif="http://www.serif.com/" style="fill-rule:evenodd;clip-rule:evenodd;stroke-linejoin:round;stroke-miterlimit:2;">
    <g transform="matrix(1,0,0,1,5.68434e-14,2)">
        <g id="projectsWave" transform="matrix(1,0,0,1,-5.68434e-14,-142)">
            <path d="M0,266L0,266C39.41,266 78.23,256.429 113.124,238.11C139.292,224.372 171.694,207.361 202.129,191.383C263.444,159.192 336.631,159.048 398.072,190.998C425.283,205.147 455.093,220.648 483.257,235.294C556.646,273.456 643.823,274.381 718.005,237.784C744.496,224.715 772.383,210.958 798.15,198.246C862.596,166.452 937.929,165.347 1003.28,195.237C1044.36,214.024 1089.06,234.47 1119.81,248.531C1144.97,260.042 1172.32,266 1200,266L1200,266L1200,992L0,992L0,266Z" style="fill:url(#_Linear1);"/>
        </g>
    </g>
    <defs>
        <linearGradient id="_Linear1" x1="0" y1="0" x2="1" y2="0" gradientUnits="userSpaceOnUse" gradientTransform="matrix(4.3475e-14,710,-710,4.3475e-14,364,242)"><stop offset="0" style="stop-color:rgb(4,5,10);stop-opacity:1"/><stop offset="1" style="stop-color:rgb(11,12,20);stop-opacity:1"/></linearGradient>
    </defs>
</svg>
