<?xml version="1.0" encoding="UTF-8" standalone="no"?>
<!DOCTYPE svg PUBLIC "-//W3C//DTD SVG 1.1//EN" "http://www.w3.org/Graphics/SVG/1.1/DTD/svg11.dtd">
<svg width="100%" height="100%" viewBox="0 0 1200 849" version="1.1" xmlns="http://www.w3.org/2000/svg" xmlns:xlink="http://www.w3.org/1999/xlink" xml:space="preserve" xmlns:serif="http://www.serif.com/" style="fill-rule:evenodd;clip-rule:evenodd;stroke-linejoin:round;stroke-miterlimit:2;">
    <g transform="matrix(1,0,0,1,0,-1.6715)">
        <g id="skillsWave" transform="matrix(1,0,0,1,0,-154.329)">
            <path d="M0,242C0,242 5.193,241.907 12.417,241.778C41.289,241.263 69.895,236.16 97.164,226.66C135.02,213.473 191.756,193.708 235.606,178.432C277.475,163.847 322.868,162.784 365.374,175.394C413.834,189.771 479.809,209.343 529.458,224.072C575.578,237.755 624.593,238.36 671.037,225.82C720.191,212.548 785.169,195.004 833.344,181.997C876.891,170.239 922.876,171.046 965.984,184.323C1013.73,199.03 1076.39,218.33 1114.9,230.188C1138.18,237.361 1162.36,241.247 1186.72,241.734C1194.29,241.886 1200,242 1200,242L1200,1004.33L0,1004.33L0,242Z" style="fill:url(#_Linear1);"/>
        </g>
    </g>
    <defs>
        <linearGradient id="_Linear1" x1="0" y1="0" x2="1" y2="0" gradientUnits="userSpaceOnUse" gradientTransform="matrix(3.07386e-14,502,-502,3.07386e-14,364,242)"><stop offset="0" style="stop-color:rgb(42,36,54);stop-opacity:1"/><stop offset="0.37" style="stop-color:rgb(42,25,33);stop-opacity:1"/><stop offset="1" style="stop-color:rgb(40,5,1);stop-opacity:1"/></linearGradient>
    </defs>
</svg>
